<?xml version="1.0" encoding="UTF-8"?>
<svg id="_레이어_2" data-name="레이어 2" xmlns="http://www.w3.org/2000/svg" viewBox="0 0 473.3 149.58">
  <defs>
    <style>
      .cls-1 {
        fill: #474747;
        stroke-width: 0px;
      }
    </style>
  </defs>
  <g id="_레이어_1-2" data-name="레이어 1">
    <g>
      <path class="cls-1" d="m48.45,81.01c-4.81-3.48-11.13-5.23-18.94-5.23-2.65,0-6.52.18-11.61.52-5.09.35-8.68.52-10.78.52h-3.98c-.28,0-.54-.02-.78-.05-.24-.03-.51-.07-.78-.1-.28-.03-.45-.05-.52-.05-.7,0-1.05.18-1.05.52s.21.52.63.52c.14,0,.45-.05.94-.16.49-.1.91-.16,1.26-.16.77,0,1.5.33,2.2.99.7.66,1.22,1.48,1.57,2.46.35.98.52,1.99.52,3.03v58.54c0,1.6-.42,3.1-1.26,4.5-.84,1.39-1.85,2.09-3.03,2.09-.35,0-.77-.07-1.26-.21-.49-.14-.8-.21-.94-.21-.42,0-.63.17-.63.52s.35.52,1.05.52c.14,0,.56-.04,1.26-.1.7-.07,1.26-.1,1.67-.1h13.18c.35,0,.89.03,1.62.1.73.07,1.17.1,1.31.1.7,0,1.05-.17,1.05-.52s-.21-.52-.63-.52c-.14,0-.45.07-.94.21-.49.14-.91.21-1.26.21-1.19,0-2.2-.7-3.03-2.09-.84-1.39-1.26-2.89-1.26-4.5v-2.51c0-9.97,1.26-16.97,3.77-21.01,2.51-4.04,6.84-6.06,12.98-6.06,8.02,0,14.18-1.48,18.47-4.44,4.29-2.96,6.43-7.3,6.43-13.01,0-6.06-2.41-10.84-7.22-14.32Zm-17.68,29.89c-4.6,0-8.27,1.03-10.99,3.08-2.72,2.06-4.64,5.7-5.75,10.92v-46.62c5.44-.49,9.87-.73,13.29-.73,6.49,0,11.68,1.66,15.59,4.96,3.91,3.31,5.86,7.68,5.86,13.12,0,10.18-6,15.26-18,15.26Z"/>
      <path class="cls-1" d="m107.88,133.48c-.35,0-.52.21-.52.63.49,1.67.59,2.89.31,3.66-.77,3.21-2.23,5.65-4.39,7.32-2.16,1.67-5.65,2.51-10.46,2.51h-20.72v-22.58c0-5.5,2.06-10.61,6.17-15.31,4.11-4.7,8.23-7.05,12.35-7.05.91,0,1.73.09,2.46.26.73.17,1.34.44,1.83.78.49.35.92.73,1.31,1.15.38.42.66.89.84,1.41.17.52.28,1.04.31,1.57.03.52.02,1.06-.05,1.62-.35,1.6-1.36,2.47-3.03,2.61-.14,0-.26.07-.37.21-.1.14-.12.28-.05.42.14.28.45.31.94.1,2.02-1.11,3.17-1.81,3.45-2.09.98-.63,1.73-1.59,2.25-2.88.52-1.29.71-2.61.58-3.97-.14-1.36-.89-2.54-2.25-3.55-1.36-1.01-3.3-1.52-5.81-1.52-2.72,0-5.51.89-8.37,2.67-2.86,1.78-5.39,4.08-7.59,6.9-2.2,2.82-3.86,5.87-4.97,9.15v-38.78h18.52c4.81,0,8.3.82,10.46,2.46,2.16,1.64,3.63,4.06,4.39,7.27.28.77.21,1.98-.21,3.66,0,.42.16.63.47.63s.47-.35.47-1.04c0-.14-.04-.56-.1-1.25-.07-.69-.1-1.25-.1-1.67v-11.92h-43.95c-.42,0-.98-.03-1.67-.1-.7-.07-1.12-.1-1.26-.1-.7,0-1.05.18-1.05.52s.21.52.63.52c.14,0,.47-.07.99-.21.52-.14,1.05-.17,1.57-.1.52.07,1.03.28,1.52.63,1.6,1.25,2.41,3.21,2.41,5.85v58.54c0,2.65-.8,4.6-2.41,5.85-.42.28-.84.47-1.26.57-.42.1-.77.14-1.05.1-.28-.03-.61-.1-.99-.21-.38-.1-.65-.16-.78-.16-.42,0-.63.17-.63.52s.35.52,1.05.52c.14,0,.56-.04,1.26-.1.7-.07,1.26-.1,1.67-.1h46.14v-11.92c0-.35.03-.89.1-1.62.07-.73.1-1.17.1-1.31,0-.7-.18-1.05-.52-1.05Z"/>
      <path class="cls-1" d="m166.89,88.75v-11.92h-54.2v11.92c0,.42-.04.98-.1,1.67-.07.7-.11,1.12-.11,1.25,0,.7.16,1.04.47,1.04s.47-.21.47-.63c-.42-1.67-.49-2.89-.21-3.66.77-3.21,2.23-5.63,4.39-7.27,2.16-1.64,5.65-2.46,10.46-2.46h8.27v63.66c0,1.6-.42,3.1-1.26,4.5-.84,1.39-1.85,2.09-3.03,2.09-.35,0-.77-.07-1.26-.21-.49-.14-.8-.21-.94-.21-.42,0-.63.17-.63.52s.35.52,1.05.52c.14,0,.56-.04,1.26-.1.7-.07,1.26-.1,1.67-.1h13.18c.35,0,.89.03,1.62.1.73.07,1.17.1,1.31.1.7,0,1.05-.17,1.05-.52s-.21-.52-.63-.52c-.14,0-.45.07-.94.21-.49.14-.91.21-1.26.21-1.19,0-2.2-.7-3.03-2.09-.84-1.39-1.26-2.89-1.26-4.5v-63.66h8.27c4.81,0,8.3.82,10.46,2.46,2.16,1.64,3.63,4.06,4.39,7.27.28.77.17,1.98-.31,3.66,0,.42.17.63.52.63s.52-.35.52-1.04c0-.14-.04-.56-.1-1.25-.07-.69-.11-1.25-.11-1.67Z"/>
      <path class="cls-1" d="m218.48,81.01c-4.81-3.48-11.13-5.23-18.94-5.23-2.65,0-6.52.18-11.61.52-5.09.35-8.68.52-10.78.52h-3.98c-.28,0-.54-.02-.78-.05-.24-.03-.51-.07-.78-.1-.28-.03-.45-.05-.52-.05-.7,0-1.05.18-1.05.52s.21.52.63.52c.14,0,.45-.05.94-.16.49-.1.91-.16,1.26-.16.77,0,1.5.33,2.2.99.7.66,1.22,1.48,1.57,2.46.35.98.52,1.99.52,3.03v58.54c0,1.6-.42,3.1-1.26,4.5-.84,1.39-1.85,2.09-3.03,2.09-.35,0-.77-.07-1.26-.21-.49-.14-.8-.21-.94-.21-.42,0-.63.17-.63.52s.35.52,1.05.52c.14,0,.56-.04,1.26-.1.7-.07,1.26-.1,1.67-.1h13.18c.35,0,.89.03,1.62.1.73.07,1.17.1,1.31.1.7,0,1.05-.17,1.05-.52s-.21-.52-.63-.52c-.14,0-.46.07-.94.21-.49.14-.91.21-1.26.21-1.19,0-2.2-.7-3.03-2.09-.84-1.39-1.26-2.89-1.26-4.5v-2.51c0-9.97,1.26-16.97,3.77-21.01,2.51-4.04,6.84-6.06,12.98-6.06,8.02,0,14.18-1.48,18.47-4.44,4.29-2.96,6.43-7.3,6.43-13.01,0-6.06-2.41-10.84-7.22-14.32Zm-17.68,29.89c-4.6,0-8.27,1.03-10.99,3.08-2.72,2.06-4.64,5.7-5.75,10.92v-46.62c5.44-.49,9.87-.73,13.29-.73,6.49,0,11.68,1.66,15.59,4.96,3.91,3.31,5.86,7.68,5.86,13.12,0,10.18-6,15.26-18,15.26Z"/>
      <path class="cls-1" d="m314.53,148.54c-.14,0-.45.07-.94.21-.49.14-.87.21-1.15.21-1.26,0-2.58-.68-3.98-2.04-1.4-1.36-2.41-2.87-3.03-4.55l-24.17-65.54h-7.32c-.42,0-.98-.03-1.67-.1-.7-.07-1.12-.1-1.26-.1-.7,0-1.05.18-1.05.52s.21.52.63.52c.14,0,.45-.05.94-.16.49-.1.91-.16,1.26-.16,1.19,0,1.94.68,2.25,2.04.31,1.36.12,2.84-.58,4.44l-14.96,40.35c-.56,1.67-1.53,3.19-2.93,4.55-.56.55-1.96,1.7-3.98,2.04-.15.03-.3.04-.31.04,0,0,0,0,0,0-.72.06-1.8.06-1.8.06-.43,0-.47,0-.99,0-.22,0-.29,0-.53,0-.41,0-.63,0-1.36,0-.14,0-.39,0-.72,0-.66,0-1.15-.02-1.65-.05-1.58-.07-2.56-.18-3.1-.11v-51.14c4.39.56,8.7.31,12.84-.73,2.81-.71,5.54-1.81,8.18-3.25-.2.53-.42,1.09-.71,1.69-.68,1.41-1.43,2.52-2.07,3.36-.29.69-.2,1.13.25,1.32.45.19.92-.29,1.4-1.45.1-.23.33-.94.72-2.14.38-1.19.72-2.14,1.01-2.83.06-.15.12-.3.18-.46,0,0,.01-.01.02-.02.03-.08.06-.17.09-.25.11-.27.21-.53.32-.8,0,0-.02,0-.02,0,3.86-10.57,2.23-21.63-4.77-32.08-14.12-21.06-47.83-36.54-80.19-36.83-.4-.99-.58-2.45-.53-4.39-.13-.57-.41-.8-.84-.7-.44.1-.54.62-.33,1.57.04.19.23.77.55,1.74.32.97.54,1.69.64,2.16v.04s0,.02.01.04c.01.06.03.11.05.17l.04.16s0,0,0,0c8.21,32.11,29.54,61.12,51.95,70.62,1.44.61,2.87,1.13,4.3,1.58v61.49c0,2.23-.42,4.31-1.25,6.24-.84,1.94-1.85,2.9-3.04,2.9-.35,0-.77-.09-1.25-.29-.49-.19-.8-.29-.94-.29-.42,0-.63.24-.63.73s.35.72,1.05.72c.14,0,.56-.05,1.26-.14.7-.1,1.26-.15,1.67-.15h54.52v-16.55c0-.48.03-1.23.1-2.25.07-1.02.1-1.62.1-1.81,0-.97-.16-1.45-.47-1.45s-.47.29-.47.87c.42,2.32.49,4.02.21,5.08-.7,4.45-2.14,7.84-4.34,10.16-2.2,2.32-5.7,3.49-10.51,3.49h-29.09v-15.33c.63.1,1.77-.04,3.08-.13,1.39-.1,2.78-.04,4.17-.07,1.01-.02,2.51-.04,4.37-.01h9.21c.42,0,.8.02,1.15.05.35.04.59.05.73.05.7,0,1.05-.16,1.05-.47s-.21-.47-.63-.47c-.14,0-.45.05-.94.16-.49.1-.91.16-1.26.16-1.19,0-1.94-.68-2.25-2.04-.31-1.36-.12-2.88.57-4.55l.21-.63c4.81-7.46,11.2-11.18,19.15-11.18,2.58,0,4.95.38,7.12,1.15l10.67,28.85c.7,1.6.91,3.1.63,4.5-.28,1.39-1.05,2.09-2.3,2.09-.28,0-.66-.07-1.15-.21-.49-.14-.84-.21-1.05-.21-.42,0-.63.17-.63.52s.35.52,1.05.52c.14,0,.57-.04,1.31-.1.73-.07,1.27-.1,1.62-.1h13.18c.42,0,.98.03,1.67.1.7.07,1.11.1,1.25.1.7,0,1.05-.17,1.05-.52s-.21-.52-.63-.52Zm-83.33-72.7c-22.19-9.4-43.31-38.14-51.49-69.99,32.04.4,65.31,15.7,79.26,36.5,7.07,10.54,8.57,21.73,4.36,32.34-6.56,3.74-13.75,5.12-21.2,4.16v-20.58c0-1.45.17-2.85.52-4.21.35-1.35.85-2.49,1.52-3.41.66-.92,1.41-1.38,2.25-1.38.35,0,.77.07,1.26.22.49.15.8.22.94.22.42,0,.63-.24.63-.73s-.35-.73-1.05-.73c-.14,0-.58.05-1.31.15-.73.1-1.27.15-1.62.15h-13.18c-.35,0-.72-.02-1.1-.07-.38-.05-.75-.09-1.1-.15-.35-.05-.59-.07-.73-.07-.7,0-1.05.24-1.05.73s.21.73.63.73c.14,0,.45-.07.94-.22.49-.15.91-.22,1.25-.22,1.19,0,2.2.95,3.04,2.83.84,1.89,1.25,3.94,1.25,6.17v19.04c-1.34-.42-2.67-.91-4.02-1.48Zm49.53,35.18c-6.84,0-12.66,2.65-17.47,7.94l13.39-35.96,10.67,28.85c-2.09-.56-4.29-.84-6.59-.84Z"/>
      <path class="cls-1" d="m380.45,76.62c-.14,0-.56.04-1.26.1-.7.07-1.25.1-1.67.1h-8.16c-.35,0-.87-.03-1.57-.1-.7-.07-1.15-.1-1.36-.1-.63,0-.94.18-.94.52s.17.52.52.52c.21,0,.56-.05,1.05-.16.49-.1.87-.16,1.15-.16.84,0,1.6.33,2.3.99.7.66,1.22,1.48,1.57,2.46.35.98.52,1.99.52,3.03v54.88l-40.91-61.88h-10.99c-.35,0-.72-.02-1.1-.05-.38-.03-.75-.07-1.1-.1-.35-.03-.59-.05-.73-.05-.7,0-1.05.18-1.05.52s.21.52.63.52c.14,0,.45-.05.94-.16.49-.1.91-.16,1.25-.16,1.19,0,2.2.68,3.04,2.04.84,1.36,1.25,2.84,1.25,4.44v58.54c0,1.6-.42,3.1-1.25,4.5-.84,1.39-1.85,2.09-3.04,2.09-.35,0-.77-.07-1.25-.21-.49-.14-.8-.21-.94-.21-.42,0-.63.17-.63.52s.35.52,1.05.52c.14,0,.56-.04,1.26-.1.7-.07,1.26-.1,1.67-.1h8.16c.35,0,.87.03,1.57.1.7.07,1.15.1,1.36.1.63,0,.94-.17.94-.52s-.17-.52-.52-.52c-.21,0-.56.07-1.05.21-.49.14-.87.21-1.15.21-1.25,0-2.3-.7-3.14-2.09-.84-1.39-1.25-2.89-1.25-4.5v-62.82l46.98,69.82h1.78v-65.54c0-1.6.42-3.08,1.26-4.44.84-1.36,1.85-2.04,3.03-2.04.35,0,.77.05,1.26.16.49.1.8.16.94.16.42,0,.63-.17.63-.52s-.35-.52-1.05-.52Z"/>
      <path class="cls-1" d="m463.78,44.43c-6.87,1.76-14.65,3.76-20.02,9.95-6.65,7.66-6.18,17.95-5.57,22.45h-53.77v11.92c0,.42-.04.98-.11,1.67-.07.7-.1,1.12-.1,1.25,0,.7.16,1.04.47,1.04s.47-.21.47-.63c-.42-1.67-.49-2.89-.21-3.66.77-3.21,2.23-5.63,4.39-7.27,2.16-1.64,5.65-2.46,10.46-2.46h8.27v63.66c0,1.6-.42,3.1-1.26,4.5-.84,1.39-1.85,2.09-3.03,2.09-.35,0-.77-.07-1.26-.21-.49-.14-.8-.21-.94-.21-.42,0-.63.17-.63.52s.35.52,1.05.52c.14,0,.56-.04,1.26-.1.7-.07,1.26-.1,1.67-.1h13.18c.35,0,.89.03,1.62.1.73.07,1.17.1,1.31.1.7,0,1.05-.17,1.05-.52s-.21-.52-.63-.52c-.14,0-.46.07-.94.21-.49.14-.91.21-1.26.21-1.19,0-2.2-.7-3.03-2.09-.84-1.39-1.25-2.89-1.25-4.5v-63.66h8.27c4.81,0,8.3.82,10.46,2.46,2.16,1.64,3.63,4.06,4.39,7.27.28.77.17,1.98-.31,3.66,0,.42.17.63.52.63s.52-.35.52-1.04c0-.14-.04-.56-.11-1.25-.07-.69-.1-1.25-.1-1.67v-11.7c4.69.7,11.34.69,17.84-2.88,8.73-4.79,11.99-13.13,13.94-18.11,1.65-4.21,2.61-8.66,2.89-13.23-3.21.28-6.41.81-9.52,1.61Z"/>
    </g>
  </g>
</svg>