<?xml version="1.0" encoding="UTF-8"?>
<svg id="_레이어_2" data-name="레이어 2" xmlns="http://www.w3.org/2000/svg" viewBox="0 0 74.39 82.33">
  <defs>
    <style>
      .cls-1 {
        stroke-width: 0px;
      }

      .cls-1, .cls-2 {
        fill: #231815;
      }

      .cls-3 {
        letter-spacing: -.03em;
      }

      .cls-4 {
        fill: none;
        stroke: #231815;
        stroke-linecap: round;
        stroke-miterlimit: 10;
        stroke-width: .5px;
      }

      .cls-2 {
        font-family: DrukWide-Bold, 'Druk Wide Bold';
        font-size: 14px;
        font-weight: 700;
      }
    </style>
  </defs>
  <g id="_레이어_1-2" data-name="레이어 1">
    <path class="cls-1" d="m54.1,21.2C42,5.24,21.76-2.59,1.29.76c-.12.02-.19.1-.24.2-.04.05-.09.09-.1.15-3.59,21.41,3.22,43.04,17.8,56.43,11.16,10.26,23.51,12.57,32.38,12.57,5.65,0,9.88-.94,11.48-1.36.12-.03.19-.13.22-.23.02-.03.05-.05.06-.09,1.19-4.39,6.35-27.29-8.79-47.25ZM19.22,57.04C4.86,43.84-1.87,22.55,1.61,1.43,21.75-1.79,41.64,5.93,53.54,21.62c14.82,19.53,9.94,41.9,8.71,46.51-4.45,1.13-25.28,5.23-43.03-11.1Z"/>
    <g>
      <line class="cls-4" x1="62.54" y1="68.29" x2="72.01" y2="82.08"/>
      <line class="cls-4" x1="62.52" y1="68.34" x2="74.12" y2="80.16"/>
      <line class="cls-4" x1="72.01" y1="82.08" x2="74.14" y2="80.21"/>
    </g>
    <text class="cls-2" transform="translate(12.01 41.35)"><tspan class="cls-3" x="0" y="0">T</tspan><tspan x="13.31" y="0">OP</tspan></text>
  </g>
</svg>